
<svg width="112" height="112" viewBox="0 0 112 112" fill="none" xmlns="http://www.w3.org/2000/svg">
  <rect width="112" height="112" rx="56" fill="#E6F0FF"/>
  <path d="M56 26C39.432 26 26 39.432 26 56C26 72.568 39.432 86 56 86C72.568 86 86 72.568 86 56C86 39.432 72.568 26 56 26ZM56 32C69.256 32 80 42.744 80 56C80 69.256 69.256 80 56 80C42.744 80 32 69.256 32 56C32 42.744 42.744 32 56 32ZM56 38C45.992 38 38 45.992 38 56C38 66.008 45.992 74 56 74C66.008 74 74 66.008 74 56C74 45.992 66.008 38 56 38ZM56 44C62.624 44 68 49.376 68 56C68 62.624 62.624 68 56 68C49.376 68 44 62.624 44 56C44 49.376 49.376 44 56 44ZM56 50C52.688 50 50 52.688 50 56C50 59.312 52.688 62 56 62C59.312 62 62 59.312 62 56C62 52.688 59.312 50 56 50Z" fill="#3B82F6"/>
</svg>
